<svg width="138" height="40" viewBox="0 0 138 40" fill="none" xmlns="http://www.w3.org/2000/svg">
<path d="M21.0931 12.6439C20.0887 11.8292 19.0842 11.2338 18.0798 10.8578C17.0754 10.4504 16.1023 10.2468 15.1607 10.2468C13.9679 10.2468 12.9949 10.5288 12.2415 11.0928C11.4882 11.6569 11.1115 12.3933 11.1115 13.302C11.1115 13.9287 11.2999 14.4458 11.6765 14.8531C12.0532 15.2605 12.5397 15.6208 13.1361 15.9342C13.7639 16.2162 14.4544 16.4669 15.2078 16.6863C15.9925 16.9056 16.7615 17.1406 17.5148 17.3913C20.5281 18.394 22.7253 19.7415 24.1064 21.4336C25.5189 23.0944 26.2251 25.2722 26.2251 27.9671C26.2251 29.7846 25.9112 31.4297 25.2835 32.9025C24.6871 34.3752 23.7925 35.6443 22.5998 36.7098C21.4384 37.7438 19.9945 38.5429 18.2681 39.1069C16.5732 39.7023 14.6428 40 12.4769 40C7.98839 40 3.8294 38.6682 0 36.0047L3.95496 28.5781C5.33605 29.8002 6.70146 30.709 8.05116 31.3043C9.40087 31.8997 10.7349 32.1974 12.0532 32.1974C13.5599 32.1974 14.6741 31.8527 15.3961 31.1633C16.1494 30.4739 16.5261 29.6906 16.5261 28.8132C16.5261 28.2805 16.4319 27.8261 16.2436 27.4501C16.0552 27.0427 15.7414 26.6823 15.3019 26.369C14.8625 26.0243 14.2818 25.7109 13.5599 25.4289C12.8693 25.1469 12.0218 24.8335 11.0174 24.4888C9.82462 24.1128 8.64755 23.7054 7.48617 23.2667C6.35618 22.7967 5.33605 22.1857 4.42579 21.4336C3.54691 20.6815 2.82497 19.7415 2.25998 18.6134C1.72637 17.454 1.45957 15.9969 1.45957 14.2421C1.45957 12.4873 1.74206 10.9048 2.30706 9.49471C2.90344 8.05327 3.71954 6.83118 4.75537 5.82844C5.82258 4.79436 7.10951 3.9953 8.61616 3.43126C10.1542 2.86722 11.8649 2.58519 13.7482 2.58519C15.5059 2.58519 17.3422 2.83588 19.2569 3.33725C21.1716 3.80729 23.0078 4.51234 24.7656 5.45241L21.0931 12.6439Z" fill="#27A8F3"/>
<path d="M41.2092 21.9976V39.0129H32.6873V21.9976H29.8623V14.9001H32.6873V7.66157H41.2092V14.9001H46.0588V21.9976H41.2092Z" fill="#27A8F3"/>
<path d="M103.857 26.886C103.857 27.6694 103.998 28.4058 104.281 29.0952C104.563 29.7532 104.94 30.3329 105.411 30.8343C105.913 31.3357 106.493 31.7274 107.153 32.0094C107.843 32.2914 108.581 32.4324 109.366 32.4324C110.119 32.4324 110.825 32.2914 111.484 32.0094C112.175 31.7274 112.756 31.3357 113.226 30.8343C113.729 30.3329 114.121 29.7532 114.403 29.0952C114.717 28.4371 114.874 27.7321 114.874 26.98C114.874 26.228 114.717 25.5229 114.403 24.8649C114.121 24.1755 113.729 23.5801 113.226 23.0787C112.756 22.5774 112.175 22.1857 111.484 21.9036C110.825 21.6216 110.119 21.4806 109.366 21.4806C108.612 21.4806 107.89 21.6216 107.2 21.9036C106.541 22.1857 105.96 22.5774 105.458 23.0787C104.987 23.5801 104.594 24.1598 104.281 24.8179C103.998 25.4446 103.857 26.134 103.857 26.886ZM114.592 0H123.161V39.0129H114.592V36.3337C112.771 38.6212 110.307 39.765 107.2 39.765C105.442 39.765 103.825 39.436 102.35 38.7779C100.875 38.1199 99.588 37.2111 98.4894 36.0517C97.3908 34.8923 96.5276 33.5292 95.8999 31.9624C95.3035 30.3956 95.0053 28.7035 95.0053 26.886C95.0053 25.1626 95.2878 23.5331 95.8528 21.9976C96.4492 20.4309 97.281 19.0678 98.3482 17.9083C99.4154 16.7489 100.687 15.8402 102.162 15.1821C103.669 14.4928 105.316 14.1481 107.106 14.1481C110.119 14.1481 112.614 15.1978 114.592 17.2973V0Z" fill="#27A8F3"/>
<path d="M137.482 14.9001V39.0129H128.96V14.9001H137.482ZM128.395 5.64042C128.395 4.98237 128.521 4.37133 128.772 3.80729C129.023 3.21191 129.368 2.69487 129.808 2.25617C130.247 1.81747 130.749 1.47278 131.314 1.22209C131.911 0.971407 132.538 0.846064 133.198 0.846064C133.857 0.846064 134.469 0.971407 135.034 1.22209C135.63 1.47278 136.148 1.81747 136.588 2.25617C137.027 2.69487 137.372 3.21191 137.623 3.80729C137.874 4.37133 138 4.98237 138 5.64042C138 6.29847 137.874 6.92519 137.623 7.52056C137.372 8.08461 137.027 8.58598 136.588 9.02468C136.148 9.46338 135.63 9.80807 135.034 10.0588C134.469 10.3094 133.857 10.4348 133.198 10.4348C132.538 10.4348 131.911 10.3094 131.314 10.0588C130.749 9.80807 130.247 9.46338 129.808 9.02468C129.368 8.58598 129.023 8.08461 128.772 7.52056C128.521 6.92519 128.395 6.29847 128.395 5.64042Z" fill="#27A8F3"/>
<path d="M57.8766 14.9001V28.4841C57.8766 31.461 59.3204 32.9495 62.2082 32.9495C65.0959 32.9495 66.5398 31.461 66.5398 28.4841V14.9001H75.0618V30.1293C75.0618 33.3882 73.9789 35.8324 71.8131 37.4618C69.6787 39.0913 66.477 39.906 62.2082 39.906C57.9393 39.906 54.722 39.0913 52.5562 37.4618C50.4218 35.8324 49.3546 33.3882 49.3546 30.1293V14.9001H57.8766Z" fill="#27A8F3"/>
<path d="M93.2084 30.1295C93.2083 33.3883 92.1254 35.8324 89.9596 37.4618C87.8252 39.0913 84.6236 39.9061 80.3548 39.9061C77.015 39.9061 74.3188 39.4073 72.2662 38.41C72.5542 38.2356 72.8288 38.0506 73.0886 37.8525L73.0891 37.8529C75.2077 36.259 76.3325 33.9412 76.5078 30.9696C77.1504 32.2892 78.4321 32.9496 80.3548 32.9496C83.2424 32.9495 84.6864 31.461 84.6864 28.4842V14.9001H93.2084V30.1295Z" fill="#27A8F3"/>
</svg>
